<svg version="1.2" baseProfile="tiny-ps" xmlns="http://www.w3.org/2000/svg" viewBox="0 0 1215 441" width="1215" height="441">
	<title>Dollar Logo-ai</title>
	<style>
		tspan { white-space:pre }
		.shp0 { fill: #e21936 } 
		.shp1 { fill: #231f20 } 
		.shp2 { fill: #4a4a49 } 
	</style>
	<g id="Layer 1">
		<g id="&lt;Group&gt;">
			<g id="&lt;Group&gt;">
				<path id="&lt;Compound Path&gt;" fill-rule="evenodd" class="shp0" d="M181.56 4.24L228.08 4.24C232.3 5.28 234.98 9.44 234.92 13.66C234.95 89.8 234.92 165.94 234.93 242.07C235.54 259.29 241.8 253.78 251.95 256.08C255.83 258.07 256.45 263.04 256.71 266.93C256.83 279.2 256.68 291.47 256.78 303.73C256.81 310.67 254.31 316.58 246.36 316.49C232.49 316.47 218.35 313.28 206.59 305.71C200.75 302.09 195.76 297.27 191.24 292.12C169.25 309.52 140.68 318.32 112.72 316.18C87.38 314.53 62.8 303.92 44.05 286.82C-3.6 243.97 -6.16 168.38 38.85 122.76C56.71 104.13 81.14 91.92 106.78 88.88C129.9 85.99 153.82 90.41 174.4 101.32C174.38 73.25 174.43 45.17 174.37 17.1C173.8 11.88 175.72 5.4 181.56 4.24ZM111.54 149.48C90.73 152.91 73.05 169.78 68.56 190.37C62.24 217.44 78.39 245.2 104.9 253.38C131.94 261.94 161.37 247.31 171.09 220.65C185.33 182.43 151.86 142.06 111.54 149.48Z" />
				<path id="&lt;Path&gt;" class="shp0" d="M537.3 4.24L583.83 4.24C588.8 5.37 591.04 10.67 590.83 15.36C590.82 112.61 590.87 209.86 590.82 307.11C590.92 311.7 587.44 316.42 582.59 316.43C568 316.59 553.38 316.51 538.79 316.48C533.77 316.71 529.91 311.89 530.1 307.11C530.06 209.86 530.1 112.61 530.08 15.37C529.81 10.61 532.19 5.2 537.3 4.24Z" />
				<path id="&lt;Path&gt;" class="shp0" d="M639.32 4.24L685.75 4.24C689.11 5.02 691.68 7.82 692.37 11.18C693.3 15.94 692.7 20.83 692.86 25.64C692.87 119.19 692.85 212.72 692.87 306.26C693.26 311.19 689.67 316.54 684.4 316.45C670.96 316.62 657.53 316.42 644.1 316.55C641.77 316.49 639.33 316.67 637.17 315.72C633.96 314.2 632.06 310.66 632.12 307.17C632.1 209.89 632.13 112.61 632.11 15.33C631.83 10.6 634.23 5.2 639.32 4.24Z" />
				<path id="&lt;Compound Path&gt;" fill-rule="evenodd" class="shp0" d="M903.29 81.22C916.1 81.24 928.92 81.24 941.75 81.22C949.13 81.24 952.66 84.79 952.74 92.35C952.73 142.55 952.74 192.74 952.73 242.93C952.84 246.98 953.46 251.75 957.04 254.3C960.81 256.88 965.62 255.01 969.75 256.18C973.73 258.43 974.23 263.64 974.52 267.74C974.58 280.28 974.55 292.83 974.54 305.37C974.76 310.52 971.13 315.66 965.87 316.32C944.65 317.36 922.47 309.01 909.07 292.11C863.13 328.18 796.57 323.81 756.21 281.36C710.67 234.7 714.54 157.9 764.04 115.69C798.93 85.35 858.63 74.02 892.2 112.36C892.21 105.4 892.17 98.43 892.2 91.48C892.22 84.07 896.6 81.3 903.29 81.22ZM829.36 149.47C810.54 152.61 794.05 166.63 787.93 184.7C772.43 228.76 818.62 271.27 861.43 250.63C883.18 240.42 895.82 216.1 891.2 192.43C885.98 163.91 857.94 144.24 829.36 149.47Z" />
				<path id="&lt;Path&gt;" class="shp0" d="M1007.9 93.15C1007.87 87.33 1012.52 81.21 1018.69 81.29C1031.58 81.17 1044.47 81.27 1057.36 81.24C1064.64 80.61 1069.32 88.41 1068.47 94.95C1068.44 104.21 1068.39 113.47 1068.51 122.71C1073.45 107.4 1085.68 93.78 1101.66 89.93C1119.13 86.62 1137.37 87.69 1154.42 92.66C1161.96 94.59 1162.16 99.67 1159.65 105.94C1155.07 117.57 1150.62 129.26 1146.05 140.89C1141.91 151.58 1133.31 149.11 1124.86 148.72C1104.44 147.46 1084.05 159.2 1074.71 177.37C1070.4 185.38 1068.44 194.5 1068.45 203.57C1068.44 237.5 1068.43 271.44 1068.46 305.37C1068.7 313.24 1064.79 316.61 1057.31 316.54C1043.59 316.43 1029.87 316.61 1016.15 316.45C1011.31 316.37 1007.92 311.68 1007.93 307.11C1007.88 235.79 1007.94 164.47 1007.9 93.15Z" />
				<path id="&lt;Compound Path&gt;" fill-rule="evenodd" class="shp0" d="M441.98 103.68C465.97 117.71 484.58 140.72 492.99 167.23C512.21 226.12 479.91 290.36 421.4 310.29C379.9 324.61 333.45 313.7 302.78 282.25C264.36 243.57 259.11 181.86 290.36 137.21C324.03 88.16 390.94 73.48 441.98 103.68ZM374.98 149.47C355.29 152.77 338.29 168.05 332.84 187.23C324.65 214.78 340.37 244.48 367.79 253.19C406.63 266.03 445.95 230.73 436.47 190.29C430.16 162.79 402.85 144.36 374.98 149.47Z" />
				<path id="&lt;Path&gt;" class="shp0" d="M1151.5 245.51C1175.01 247.68 1188.12 268.38 1185.25 290.79C1183.3 302.22 1175.63 312.17 1165.53 317.62C1151.11 325.4 1131.6 322.35 1120.16 310.56C1094.77 284.4 1116.56 241.37 1151.5 245.51Z" />
			</g>
			<g id="&lt;Group&gt;">
				<path id="&lt;Compound Path&gt;" fill-rule="evenodd" class="shp1" d="M636.61 386.7L636.61 427.87C636.61 430.76 634.27 433.11 631.37 433.11C628.48 433.11 626.13 430.76 626.13 427.87L626.13 406.85L600.59 406.85L600.59 427.87C600.59 430.76 598.24 433.11 595.35 433.11C592.46 433.11 590.11 430.76 590.11 427.87L590.11 386.7C590.11 372.73 599.11 362.43 613.35 362.21C627.5 362.4 636.61 372.84 636.61 386.7ZM600.59 386.7L600.59 396.37L626.13 396.37L626.13 386.7C626.13 378.78 621.69 372.69 613.37 372.69C604.91 372.69 600.59 378.63 600.59 386.7Z" />
				<path id="&lt;Compound Path&gt;" fill-rule="evenodd" class="shp1" d="M1024.42 386.7L1024.42 427.87C1024.42 430.76 1022.07 433.11 1019.18 433.11C1016.28 433.11 1013.94 430.76 1013.94 427.87L1013.94 406.85L988.39 406.85L988.39 427.87C988.39 430.76 986.04 433.11 983.15 433.11C980.26 433.11 977.91 430.76 977.91 427.87L977.91 386.7C977.91 372.73 986.91 362.43 1001.16 362.21C1015.31 362.4 1024.42 372.84 1024.42 386.7ZM988.39 386.7L988.39 396.37L1013.94 396.37L1013.94 386.7C1013.94 378.78 1009.49 372.69 1001.17 372.69C992.71 372.69 988.39 378.63 988.39 386.7Z" />
				<path id="&lt;Compound Path&gt;" fill-rule="evenodd" class="shp1" d="M785.28 401.98C789.98 405.94 793.35 411.98 793.35 418.22L793.35 427.87C793.35 430.76 791 433.11 788.11 433.11C785.22 433.11 782.87 430.76 782.87 427.87L782.87 418.22C782.87 411.91 776.14 406.85 770.11 406.85L757.62 406.85L757.62 427.87C757.62 430.76 755.27 433.11 752.38 433.11C749.49 433.11 747.14 430.76 747.14 427.87L747.14 381.08C747.14 369.38 754.1 362.21 765.86 362.21C767.71 362.21 769.55 362.21 771.39 362.21C783.58 362.21 792.67 371.21 793.13 383.33C793.4 390.46 790.97 397.47 785.28 401.98ZM757.62 381.08L757.62 396.37L770.49 396.37C778.43 396.37 782.99 391.62 782.69 383.69C782.44 377.19 777.93 372.69 771.39 372.69C769.55 372.69 767.71 372.69 765.86 372.69C759.89 372.69 757.62 375.15 757.62 381.08Z" />
				<path id="&lt;Compound Path&gt;" fill-rule="evenodd" class="shp1" d="M692.65 401.98C697.35 405.94 700.72 411.98 700.72 418.22L700.72 427.87C700.72 430.76 698.37 433.11 695.48 433.11C692.59 433.11 690.24 430.76 690.24 427.87L690.24 418.22C690.24 411.91 683.51 406.85 677.48 406.85L664.99 406.85L664.99 427.87C664.99 430.76 662.64 433.11 659.75 433.11C656.86 433.11 654.51 430.76 654.51 427.87L654.51 381.08C654.51 369.38 661.47 362.21 673.23 362.21C675.08 362.21 676.92 362.21 678.76 362.21C690.95 362.21 700.04 371.21 700.5 383.33C700.77 390.46 698.34 397.47 692.65 401.98ZM664.99 381.08L664.99 396.37L677.86 396.37C685.8 396.37 690.36 391.62 690.06 383.69C689.81 377.19 685.3 372.69 678.76 372.69C676.92 372.69 675.08 372.69 673.23 372.69C667.26 372.69 664.99 375.15 664.99 381.08Z" />
				<path id="&lt;Path&gt;" class="shp1" d="M908.03 386.7L908.03 427.87C908.03 430.76 905.68 433.11 902.79 433.11C899.89 433.11 897.55 430.76 897.55 427.87L897.55 386.7C897.55 378.78 893.1 372.69 884.78 372.69C876.3 372.69 872 378.67 872 386.7L872 427.87C872 430.76 869.65 433.11 866.76 433.11C863.87 433.11 861.52 430.76 861.52 427.87L861.52 386.7C861.52 372.71 870.49 362.43 884.76 362.21C898.84 362.21 908.03 373.07 908.03 386.7Z" />
				<path id="&lt;Path&gt;" class="shp1" d="M819.38 379.72L819.38 392.25L841.62 392.25C844.51 392.25 846.86 394.59 846.86 397.48C846.86 400.38 844.51 402.72 841.62 402.72L819.38 402.72L819.38 415.12C819.38 419.52 820.73 422.15 825.47 422.15L841.29 422.15C844.18 422.15 846.53 424.5 846.53 427.39C846.53 430.28 844.18 432.63 841.29 432.63L825.47 432.63C814.89 432.63 808.9 425.34 808.9 415.12L808.9 379.72C808.9 369.49 814.89 362.21 825.47 362.21L841.29 362.21C844.18 362.21 846.53 364.55 846.53 367.45C846.53 370.34 844.18 372.69 841.29 372.69L825.47 372.69C820.73 372.69 819.38 375.32 819.38 379.72Z" />
				<path id="&lt;Path&gt;" class="shp1" d="M926.12 372.69C923.22 372.69 920.88 370.34 920.88 367.45C920.88 364.55 923.22 362.21 926.12 362.21L960.6 362.21C963.49 362.21 965.84 364.55 965.84 367.45C965.84 370.34 963.49 372.69 960.6 372.69L948.6 372.69L948.6 428.06C948.6 430.85 946.25 433.11 943.36 433.11C940.46 433.11 938.12 430.85 938.12 428.06L938.12 372.69L926.12 372.69Z" />
				<path id="&lt;Path&gt;" class="shp1" d="M1053 413.8C1053 418.38 1053.86 422.05 1059.09 422.17L1073.22 422.15C1076.11 422.15 1078.46 424.5 1078.46 427.39C1078.46 430.28 1076.11 432.63 1073.22 432.63L1060.45 432.63C1048.61 432.63 1042.52 425.73 1042.52 413.8L1042.52 367.44C1042.52 364.55 1044.86 362.2 1047.76 362.2C1050.65 362.2 1053 364.55 1053 367.44L1053 413.8Z" />
				<path id="&lt;Path&gt;" class="shp1" d="M537.26 373.98C545.19 365.13 556.69 362.21 560.95 362.21L572 362.21C574.87 362.21 577.21 364.55 577.21 367.45C577.21 370.34 574.87 372.69 572 372.69L560.95 372.69C558.18 372.69 550.58 374.75 544.99 380.98C537.11 389.79 537.11 405.05 544.99 413.86C550.58 420.09 558.18 422.15 560.95 422.15L572 422.15C574.87 422.15 577.21 424.5 577.21 427.39C577.21 430.28 574.87 432.63 572 432.63L560.95 432.63C556.69 432.63 545.19 429.7 537.26 420.86C525.81 408.06 525.81 386.77 537.26 373.98Z" />
			</g>
		</g>
		<g id="&lt;Group&gt;">
			<g id="&lt;Group&gt;">
				<path id="&lt;Compound Path&gt;" class="shp2" d="M1171.43 82.23L1171.43 85.24L1178.53 85.24L1178.53 104.33L1181.68 104.33L1181.68 85.24L1188.78 85.24L1188.78 82.23L1171.43 82.23ZM1212.74 82.23L1204.93 94.35L1197.03 82.23L1193.66 82.23L1193.66 104.33L1196.82 104.33L1196.82 87.4L1204.64 99.38L1205.07 99.38L1212.96 87.4L1212.96 104.33L1216.04 104.33L1216.04 82.23L1212.74 82.23Z" />
			</g>
		</g>
	</g>
</svg>